<svg width="59" height="50" viewBox="0 0 59 50" fill="none" xmlns="http://www.w3.org/2000/svg">
<path d="M18.2125 1.5C18.5042 2.04167 18.65 2.66667 18.65 3.375C18.65 4 18.525 4.66667 18.275 5.375C18.025 6.08333 17.6292 6.625 17.0875 7C16.7125 7.83333 16.3375 8.52083 15.9625 9.0625C15.6292 9.5625 15.2958 10.0625 14.9625 10.5625C14.8375 10.8542 14.7125 11.1458 14.5875 11.4375C14.4625 11.6875 14.2958 11.9583 14.0875 12.25C13.9625 12.4583 13.6917 12.875 13.275 13.5C12.8583 14.125 12.4208 14.7917 11.9625 15.5C11.5458 16.1667 11.1708 16.8125 10.8375 17.4375C10.5042 18.0625 10.3375 18.4583 10.3375 18.625C10.3375 18.7917 10.525 19 10.9 19.25C11.3167 19.5 11.5875 19.6875 11.7125 19.8125C11.9208 20.0208 12.1083 20.2292 12.275 20.4375C12.4833 20.6458 12.6917 20.8542 12.9 21.0625C13.3583 21.4375 13.7958 21.8125 14.2125 22.1875C14.6708 22.5625 15.1292 22.9792 15.5875 23.4375C16.4625 24.2292 17.3792 24.9792 18.3375 25.6875C19.2958 26.3958 20.15 27.2292 20.9 28.1875C21.6083 28.3958 22.0667 28.8958 22.275 29.6875C22.4833 30.4792 22.5458 31.2292 22.4625 31.9375C22.5458 32.0625 22.6083 32.1875 22.65 32.3125C22.7333 32.4375 22.8167 32.5833 22.9 32.75C22.9 33.4167 22.7958 33.9167 22.5875 34.25C22.4208 34.5417 22.2333 34.9167 22.025 35.375C21.8167 35.7917 21.6708 36.2083 21.5875 36.625C21.5458 37.0417 21.4208 37.4167 21.2125 37.75C21.1292 37.875 21.0042 37.9792 20.8375 38.0625C20.7125 38.1458 20.6083 38.2708 20.525 38.4375C20.3583 38.7292 20.2125 39.0833 20.0875 39.5C20.0042 39.875 19.8792 40.2292 19.7125 40.5625C19.5875 40.8958 19.4208 41.2292 19.2125 41.5625C19.0458 41.8958 18.9 42.2292 18.775 42.5625C18.6917 42.7708 18.6083 43.0208 18.525 43.3125C18.4833 43.6042 18.2958 43.8125 17.9625 43.9375C17.7542 44.6875 17.4625 45.4167 17.0875 46.125C16.7542 46.8333 16.4833 47.5625 16.275 48.3125C15.9 48.4375 15.4208 48.6667 14.8375 49C14.2958 49.375 13.8583 49.5625 13.525 49.5625C13.4 49.5625 13.2958 49.5 13.2125 49.375C13.1292 49.25 13.0042 49.1458 12.8375 49.0625C12.7542 49.0208 12.6292 49.0208 12.4625 49.0625C12.3375 49.1042 12.2333 49.125 12.15 49.125C11.9417 49.125 11.775 49.0417 11.65 48.875C11.5667 48.7083 11.4417 48.5833 11.275 48.5C11.15 48.5417 11.025 48.5833 10.9 48.625C10.775 48.6667 10.65 48.6875 10.525 48.6875C10.2333 48.6875 10.0667 48.6042 10.025 48.4375C9.98333 48.3125 9.85833 48.1875 9.65 48.0625C9.15 47.8125 8.85833 47.5833 8.775 47.375C8.69167 47.1667 8.56667 47.0208 8.4 46.9375C8.69167 45.8542 9.0875 44.8333 9.5875 43.875C10.0875 42.875 10.5667 41.875 11.025 40.875C11.15 40.5417 11.2958 40.2292 11.4625 39.9375C11.6708 39.6458 11.8583 39.3333 12.025 39C12.15 38.7083 12.3375 38.3333 12.5875 37.875C12.8375 37.4167 13.0667 36.9375 13.275 36.4375C13.4833 35.9375 13.6708 35.4792 13.8375 35.0625C14.0042 34.6042 14.0875 34.2292 14.0875 33.9375C14.0875 33.3542 13.9208 32.9167 13.5875 32.625C12.3792 31.625 11.2333 30.6042 10.15 29.5625C9.10833 28.5208 8.00417 27.4583 6.8375 26.375C6.0875 25.7083 5.275 25.0208 4.4 24.3125C4.23333 24.1875 4.10833 24 4.025 23.75C3.94167 23.5 3.81667 23.2708 3.65 23.0625C3.56667 22.8958 3.44167 22.7708 3.275 22.6875C3.10833 22.6042 2.98333 22.4792 2.9 22.3125C2.775 22.1458 2.69167 21.9583 2.65 21.75C2.60833 21.5 2.48333 21.3125 2.275 21.1875C2.06667 20.9792 1.81667 20.8542 1.525 20.8125C1.23333 20.7708 0.983333 20.6458 0.775 20.4375C0.9 20.3125 0.9625 20.1875 0.9625 20.0625C0.920833 19.8958 0.9 19.75 0.9 19.625C0.9 19.3333 1.025 19.125 1.275 19C1.525 18.875 1.65 18.6458 1.65 18.3125C1.81667 17.9792 1.94167 17.7708 2.025 17.6875C2.48333 16.5625 3.00417 15.4792 3.5875 14.4375C4.17083 13.3958 4.775 12.3542 5.4 11.3125C5.60833 10.9792 5.79583 10.6667 5.9625 10.375C6.17083 10.0417 6.37917 9.70833 6.5875 9.375C6.7125 9.08333 6.81667 8.83333 6.9 8.625C7.025 8.375 7.19167 8.14583 7.4 7.9375C7.98333 7.27083 8.4625 6.64583 8.8375 6.0625C9.25417 5.47917 9.56667 4.77083 9.775 3.9375C9.81667 3.72917 9.9 3.4375 10.025 3.0625C10.15 2.6875 10.2958 2.3125 10.4625 1.9375C10.6708 1.5625 10.8792 1.22917 11.0875 0.9375C11.2958 0.645833 11.525 0.5 11.775 0.5C11.9833 0.5 12.275 0.583333 12.65 0.75C13.0667 0.916667 13.4208 1.04167 13.7125 1.125C13.9625 1.20833 14.2125 1.29167 14.4625 1.375C14.7542 1.41667 15.025 1.4375 15.275 1.4375C15.4417 1.4375 15.6083 1.39583 15.775 1.3125C15.9417 1.1875 16.1292 1.125 16.3375 1.125C16.6708 1.125 16.9833 1.1875 17.275 1.3125C17.5667 1.39583 17.8792 1.45833 18.2125 1.5ZM35.6 2.5625C35.7667 2.52083 35.9125 2.45833 36.0375 2.375C36.1625 2.29167 36.3083 2.25 36.475 2.25C36.6 2.29167 36.6833 2.375 36.725 2.5C36.8083 2.625 36.9125 2.72917 37.0375 2.8125C37.1625 2.72917 37.2667 2.64583 37.35 2.5625C37.475 2.47917 37.6 2.41667 37.725 2.375C38.1417 2.5 38.3708 2.70833 38.4125 3C38.6208 3.08333 38.8083 3.1875 38.975 3.3125C39.1417 3.39583 39.3292 3.45833 39.5375 3.5C39.6208 3.66667 39.725 3.79167 39.85 3.875C39.975 3.95833 40.1208 4.08333 40.2875 4.25C40.7042 4.33333 41.2458 4.5625 41.9125 4.9375C42.6208 5.3125 43.1833 5.60417 43.6 5.8125C44.0167 6.02083 44.4333 6.22917 44.85 6.4375C45.2667 6.64583 45.6625 6.875 46.0375 7.125C46.4125 7.33333 46.7875 7.58333 47.1625 7.875C47.5375 8.125 47.9333 8.33333 48.35 8.5C48.725 8.95833 49.2042 9.25 49.7875 9.375C50.3708 9.5 50.8917 9.72917 51.35 10.0625C51.725 10.2708 52.0792 10.5 52.4125 10.75C52.7458 10.9583 53.0792 11.1667 53.4125 11.375C53.5375 11.5833 53.6833 11.75 53.85 11.875C54.0583 12 54.2458 12.1667 54.4125 12.375C55.2458 12.8333 55.725 13.1875 55.85 13.4375C55.975 13.5208 56.1625 13.6458 56.4125 13.8125C56.6625 13.9792 56.9125 14.1667 57.1625 14.375C57.4125 14.5417 57.6417 14.7292 57.85 14.9375C58.0583 15.1042 58.1833 15.2708 58.225 15.4375C58.0583 15.8125 57.975 16.125 57.975 16.375C57.975 16.5833 57.8917 16.7708 57.725 16.9375C57.975 17.2708 58.1 17.5833 58.1 17.875C57.8917 18.375 57.5375 18.7917 57.0375 19.125C56.9125 19.4583 56.7042 19.7292 56.4125 19.9375C56.1625 20.1042 55.9958 20.3542 55.9125 20.6875C55.5792 20.8958 55.3708 21.0625 55.2875 21.1875C55.2458 21.3125 55.1833 21.4375 55.1 21.5625C54.3083 22.3958 53.5583 23.125 52.85 23.75C52.1833 24.3333 51.5583 24.9792 50.975 25.6875C50.5583 25.8958 50.2042 26.1667 49.9125 26.5C49.6208 26.7917 49.35 27.125 49.1 27.5C48.7667 27.8333 48.4333 28.1667 48.1 28.5C47.8083 28.7917 47.4958 29.0833 47.1625 29.375C47.0792 29.5417 46.9333 29.6875 46.725 29.8125C46.5583 29.8958 46.4333 30.0417 46.35 30.25C45.8917 30.4583 45.5167 30.75 45.225 31.125C44.9333 31.5 44.5792 31.8125 44.1625 32.0625L43.725 32.6875C43.6 32.7708 43.4125 32.9167 43.1625 33.125C42.9542 33.2917 42.725 33.5 42.475 33.75C42.2667 33.9583 42.0792 34.1667 41.9125 34.375C41.7458 34.5833 41.6417 34.75 41.6 34.875C41.475 34.9167 41.2667 35.0417 40.975 35.25C40.725 35.4583 40.4542 35.6875 40.1625 35.9375C39.9125 36.1875 39.6625 36.4375 39.4125 36.6875C39.2042 36.9375 39.0792 37.1042 39.0375 37.1875L38.4125 37.625C38.4542 38.75 38.475 39.8958 38.475 41.0625C38.5167 42.1875 38.5375 43.3125 38.5375 44.4375V46.5625L38.1 47.125C37.8917 47.125 37.725 47.0833 37.6 47C37.475 46.9167 37.3292 46.875 37.1625 46.875C36.9958 46.875 36.8292 46.9583 36.6625 47.125C36.5375 47.2917 36.4125 47.4167 36.2875 47.5C35.9958 47.5417 35.7458 47.625 35.5375 47.75C35.3708 47.8333 35.1833 47.9167 34.975 48C34.725 47.875 34.475 47.8125 34.225 47.8125C33.6833 47.9375 33.4125 47.9583 33.4125 47.875C33.4542 47.7917 33.3708 47.75 33.1625 47.75C32.8292 48.0833 32.6208 48.25 32.5375 48.25C32.3708 48.25 32.2042 48.2708 32.0375 48.3125C31.9125 48.3542 31.7667 48.375 31.6 48.375C31.4333 48.0417 31.2875 47.7083 31.1625 47.375C31.0792 47 30.8917 46.6458 30.6 46.3125C30.725 45.8958 30.7042 45.6042 30.5375 45.4375C30.7875 44.9792 30.8917 44.4583 30.85 43.875C30.8083 43.2917 30.7875 42.75 30.7875 42.25C30.7875 41.9583 30.7875 41.6875 30.7875 41.4375C30.8292 41.1458 30.85 40.875 30.85 40.625C30.85 40.125 30.8083 39.625 30.725 39.125C30.6417 38.5833 30.6 38.0417 30.6 37.5C30.6 36.25 30.6417 35 30.725 33.75C30.8083 32.4583 30.85 31.1875 30.85 29.9375C30.85 29.2292 30.8083 28.5 30.725 27.75C30.6833 27 30.6625 26.2708 30.6625 25.5625C30.6625 25.1042 30.6833 24.6875 30.725 24.3125C30.7667 23.8958 30.8083 23.5 30.85 23.125C30.85 21.2083 30.8708 19.375 30.9125 17.625C30.9958 15.8333 31.0375 14.0625 31.0375 12.3125C31.0375 11.7292 31.0167 11.1875 30.975 10.6875C30.975 10.1458 30.975 9.58333 30.975 9C30.975 8.70833 30.9958 8.41667 31.0375 8.125C31.0792 7.83333 31.1 7.54167 31.1 7.25C31.225 5.95833 31.2875 4.66667 31.2875 3.375L31.225 2.375C31.3917 2.125 31.6417 2 31.975 2C32.4333 2 32.7875 2.14583 33.0375 2.4375C33.3292 2.39583 33.6 2.35417 33.85 2.3125C34.1417 2.22917 34.4125 2.1875 34.6625 2.1875C35.0375 2.1875 35.35 2.3125 35.6 2.5625ZM39.2875 12.5C39.2875 12.7083 39.2667 12.875 39.225 13C39.1833 13.0833 39.1417 13.1667 39.1 13.25C39.1 13.375 39.1 13.5208 39.1 13.6875C39.1417 13.8125 39.1625 13.9583 39.1625 14.125C39.1625 15.0833 39.1417 16.0417 39.1 17C39.1 17.9167 39.1 18.8333 39.1 19.75L38.975 23.0625C38.975 23.2708 38.9958 23.5 39.0375 23.75C39.0792 24 39.1 24.2292 39.1 24.4375C39.1 24.6458 39.0792 24.8542 39.0375 25.0625C38.9958 25.2708 38.975 25.4792 38.975 25.6875C38.975 26.2292 39.0375 26.7708 39.1625 27.3125C39.3708 27.2292 39.5167 27.1042 39.6 26.9375C39.6833 26.7292 39.7875 26.5625 39.9125 26.4375C40.8708 25.5625 41.7667 24.6458 42.6 23.6875C43.4333 22.7292 44.2875 21.7708 45.1625 20.8125C45.9125 20.0208 46.5583 19.375 47.1 18.875C47.6417 18.375 48.0583 17.7708 48.35 17.0625C47.6417 16.6042 46.9125 16.1458 46.1625 15.6875C45.4125 15.1875 44.6208 14.7708 43.7875 14.4375C43.7458 14.3542 43.6208 14.25 43.4125 14.125C43.2458 14 43.0583 13.8958 42.85 13.8125C42.6417 13.6875 42.4333 13.5833 42.225 13.5C42.0167 13.4167 41.8708 13.375 41.7875 13.375C41.4125 13.0417 41.0167 12.8333 40.6 12.75C40.3083 12.75 40.0583 12.7083 39.85 12.625C39.6417 12.5 39.4958 12.3958 39.4125 12.3125L39.2875 12.5Z" fill="#DD2424"/>
</svg>
